P3
24 20
255
25 25 25 25 25 25 25 25 25 25 25 25 25 25 25 25 25 25 25 25 25 25 25 25 25 25 25 25 25 25 25 25 25 171 15 15 200 52 52 241 100 100 251 131 131 215 105 105 216 108 108 177 77 77 135 46 46 122 34 34 103 19 19 88 9 9 83 5 5 77 1 1 25 25 25 25 25 25 25 25 25 25 25 25 25 25 25 25 25 25 25 25 25 25 25 25 25 25 25 25 25 25 156 4 4 170 25 25 153 32 32 175 65 65 174 66 66 189 85 85 178 79 79 130 44 44 120 35 35 105 25 25 90 13 13 81 5 5 79 2 2 77 1 1 25 25 25 25 25 25 25 25 25 25 25 25 25 25 25 25 25 25 25 25 25 25 25 25 25 25 25 25 25 25 140 3 3 127 6 6 146 25 25 136 34 34 130 39 39 141 50 50 132 45 45 127 42 42 109 29 29 93 16 16 86 9 9 81 5 5 78 2 2 77 1 1 25 25 25 25 25 25 25 25 25 25 25 25 25 25 25 25 25 25 25 25 25 25 25 25 25 25 25 25 25 25 122 4 4 122 11 11 126 23 23 127 30 30 104 17 17 117 33 33 108 28 28 91 14 14 91 14 14 86 9 9 82 6 6 79 2 2 77 0 0 76 0 0 25 25 25 25 25 25 25 25 25 25 25 25 25 25 25 25 25 25 25 25 25 25 25 25 25 25 25 121 0 0 109 1 1 101 3 3 101 6 6 94 7 7 87 10 10 85 9 9 88 11 11 90 13 13 83 7 7 80 4 4 78 2 2 78 2 2 77 0 0 76 0 0 25 25 25 25 25 25 25 25 25 25 25 25 25 25 25 25 25 25 25 25 25 25 25 25 25 25 25 103 0 0 89 0 0 88 1 1 85 3 3 78 2 2 83 7 7 82 6 6 81 4 4 82 5 5 80 3 3 79 3 3 77 1 1 77 0 0 76 0 0 76 0 0 25 25 25 25 25 25 25 25 25 25 25 25 25 25 25 25 25 25 25 25 25 25 25 25 25 25 25 25 25 25 79 0 0 76 0 0 77 0 0 77 0 0 79 2 2 78 2 2 78 1 1 79 2 2 78 1 1 77 1 1 76 0 0 76 0 0 76 0 0 76 0 0 25 25 25 25 25 25 25 25 25 25 25 25 25 25 25 25 25 25 25 25 25 25 25 25 25 25 25 85 0 0 76 0 0 76 0 0 76 0 0 76 0 0 77 0 0 76 0 0 77 0 0 77 0 0 77 0 0 76 0 0 76 0 0 76 0 0 76 0 0 76 0 0 25 25 25 25 25 25 25 25 25 25 25 25 25 25 25 25 25 25 25 25 25 25 25 25 25 25 25 25 25 25 76 0 0 76 0 0 76 0 0 76 0 0 76 0 0 76 0 0 76 0 0 76 0 0 76 0 0 76 0 0 76 0 0 76 0 0 76 0 0 76 0 0 25 25 25 25 25 25 25 25 25 25 25 25 25 25 25 25 25 25 25 25 25 25 25 25 25 25 25 25 25 25 76 0 0 76 0 0 76 0 0 76 0 0 76 0 0 76 0 0 76 0 0 76 0 0 76 0 0 76 0 0 76 0 0 76 0 0 76 0 0 76 0 0 25 25 25 25 25 25 25 25 25 25 25 25 25 25 25 25 25 25 25 25 25 25 25 25 25 25 25 25 25 25 76 0 0 76 0 0 76 0 0 76 0 0 76 0 0 76 0 0 76 0 0 76 0 0 76 0 0 76 0 0 76 0 0 76 0 0 76 0 0 76 0 0 25 25 25 25 25 25 25 25 25 25 25 25 25 25 25 25 25 25 25 25 25 25 25 25 25 25 25 25 25 25 25 25 25 25 25 25 76 0 0 76 0 0 76 0 0 76 0 0 76 0 0 76 0 0 76 0 0 76 0 0 76 0 0 76 0 0 76 0 0 76 0 0 25 25 25 25 25 25 25 25 25 25 25 25 25 25 25 25 25 25 25 25 25 25 25 25 25 25 25 25 25 25 25 25 25 76 0 0 76 0 0 76 0 0 76 0 0 76 0 0 76 0 0 76 0 0 76 0 0 76 0 0 76 0 0 76 0 0 76 0 0 76 0 0 25 25 25 25 25 25 25 25 25 25 25 25 25 25 25 25 25 25 25 25 25 25 25 25 25 25 25 25 25 25 25 25 25 25 25 25 76 0 0 76 0 0 76 0 0 76 0 0 76 0 0 76 0 0 76 0 0 76 0 0 76 0 0 76 0 0 76 0 0 76 0 0 25 25 25 25 25 25 25 25 25 25 25 25 25 25 25 25 25 25 25 25 25 25 25 25 25 25 25 25 25 25 25 25 25 25 25 25 25 25 25 25 25 25 76 0 0 76 0 0 76 0 0 76 0 0 76 0 0 76 0 0 76 0 0 76 0 0 76 0 0 76 0 0 25 25 25 25 25 25 25 25 25 25 25 25 25 25 25 25 25 25 25 25 25 25 25 25 25 25 25 25 25 25 25 25 25 25 25 25 25 25 25 25 25 25 227 3 3 255 32 32 255 41 41 255 195 195 194 4 4 76 0 0 44 2 2 25 25 25 25 25 25 25 25 25 25 25 25 25 25 25 25 25 25 25 25 25 25 25 25 25 25 25 25 25 25 25 25 25 25 25 25 25 25 25 25 25 25 25 25 25 25 25 25 227 4 4 255 70 70 255 129 129 255 127 127 255 66 66 255 69 69 157 10 10 171 11 11 165 11 11 25 25 25 25 25 25 25 25 25 25 25 25 25 25 25 25 25 25 25 25 25 25 25 25 25 25 25 25 25 25 25 25 25 25 25 25 25 25 25 25 25 25 219 5 5 255 40 40 255 95 95 255 142 142 255 168 168 255 183 183 255 125 125 167 11 11 172 11 11 82 5 5 145 9 9 140 9 9 25 25 25 25 25 25 25 25 25 25 25 25 25 25 25 25 25 25 25 25 25 25 25 25 25 25 25 25 25 25 25 25 25 204 5 5 247 36 36 255 98 98 255 112 112 255 175 175 255 202 202 255 198 198 255 157 157 163 11 11 159 10 10 154 10 10 140 9 9 138 9 9 25 25 25 25 25 25 25 25 25 25 25 25 25 25 25 25 25 25 25 25 25 25 25 25 25 25 25 25 25 25 159 10 10 197 5 5 227 31 31 255 93 93 167 15 15 255 182 182 255 100 100 255 111 111 192 38 38 127 127 127 127 127 127 127 127 127 127 127 127 127 127 127 
